<mxfile host="app.diagrams.net" modified="2024-02-22T12:43:05.792Z" agent="Mozilla/5.0 (Macintosh; Intel Mac OS X 10_15_7) AppleWebKit/537.36 (KHTML, like Gecko) Chrome/121.0.0.0 Safari/537.36" version="23.1.5" etag="hmolhdUY1IP9w-cg2Z5y" type="github">
  <diagram name="Page-1" id="90Na_NWfflwUj9m82otn">
    <mxGraphModel>
      <root>
        <mxCell id="0" />
        <mxCell id="1" parent="0" />
      </root>
    </mxGraphModel>
  </diagram>
</mxfile>
